<svg width="16" height="17" viewBox="0 0 16 17" fill="none" xmlns="http://www.w3.org/2000/svg">
<path d="M10.6668 9.0987V11.8987C10.6668 14.232 9.7335 15.1654 7.40016 15.1654H4.60016C2.26683 15.1654 1.3335 14.232 1.3335 11.8987V9.0987C1.3335 6.76536 2.26683 5.83203 4.60016 5.83203H7.40016C9.7335 5.83203 10.6668 6.76536 10.6668 9.0987Z" stroke="#69737C" stroke-width="1.5" stroke-linecap="round" stroke-linejoin="round"/>
<path d="M14.6668 5.0987V7.8987C14.6668 10.232 13.7335 11.1654 11.4002 11.1654H10.6668V9.0987C10.6668 6.76536 9.7335 5.83203 7.40016 5.83203H5.3335V5.0987C5.3335 2.76536 6.26683 1.83203 8.60016 1.83203H11.4002C13.7335 1.83203 14.6668 2.76536 14.6668 5.0987Z" stroke="#69737C" stroke-width="1.5" stroke-linecap="round" stroke-linejoin="round"/>
</svg>
