<?xml version="1.0" encoding="UTF-8"?><svg id="Calque_2" xmlns="http://www.w3.org/2000/svg" viewBox="0 0 56.07 56.07"><defs><style>.cls-1{fill:#d3b871;}.cls-1,.cls-2{stroke-width:0px;}.cls-2{fill:#fff;}</style></defs><g id="Calque_1-2"><circle class="cls-1" cx="28.03" cy="28.03" r="28.03"/><path class="cls-2" d="m28.03,0s-.01,0-.02,0h-.02s0,0,0,0c0,0-.01,0-.02,0h0s-.01,0-.02,0h0s-.01,0-.02,0c0,0,0,0,0,0,0,0-.01,0-.02,0h0s-.01,0-.02,0h0s-.01,0-.02,0h0s-.01,0-.02,0c0,0,0,0,0,0,0,0-.01,0-.02,0h0s-.01,0-.02,0h0s-.01,0-.02,0h0s-.01,0-.02,0h0s-.01,0-.02,0h0c-.53,0-1.05.03-1.57.06,0,0,0,0,0,0,0,0-.01,0-.02,0,0,0,0,0,0,0,0,0-.01,0-.02,0,0,0,0,0,0,0,0,0,0,0,0,0l.53,7.76c.47-.03.94-.05,1.41-.05V0h0Zm-7.27.95c-.13.04-.27.07-.4.11,0,0,0,0,0,0-.01,0-.03,0-.04.01,0,0,0,0,0,0,0,0-.01,0-.02,0,0,0,0,0,0,0,0,0-.01,0-.02,0,0,0,0,0,0,0,0,0,0,0-.01,0,0,0,0,0,0,0,0,0,0,0-.01,0,0,0,0,0,0,0,0,0,0,0-.01,0,0,0,0,0,0,0,0,0,0,0-.01,0,0,0,0,0,0,0,0,0,0,0-.01,0,0,0,0,0,0,0,0,0,0,0,0,0,0,0,0,0,0,0,0,0,0,0,0,0,0,0-.01,0-.02,0,0,0,0,0,0,0,0,0,0,0-.01,0,0,0,0,0,0,0,0,0-.01,0-.02,0,0,0,0,0,0,0,0,0,0,0-.01,0,0,0,0,0,0,0-.01,0-.03,0-.04.01,0,0,0,0,0,0,0,0,0,0-.01,0h0s-.02,0-.03,0c0,0,0,0,0,0,0,0,0,0-.01,0h0s-.03,0-.04.01c0,0,0,0,0,0-.01,0-.03,0-.04.01h0s-.03,0-.04.01c0,0,0,0,0,0,0,0,0,0-.01,0,0,0,0,0,0,0-.01,0-.03,0-.04.01,0,0,0,0,0,0-.01,0-.03,0-.04.01h0s0,0-.01,0c0,0,0,0,0,0-.01,0-.03,0-.04.01,0,0,0,0,0,0-.01,0-.02,0-.04.01,0,0,0,0,0,0,0,0,0,0-.01,0,0,0,0,0,0,0,0,0,0,0-.01,0,0,0,0,0-.01,0,0,0,0,0,0,0,0,0,0,0-.01,0,0,0,0,0,0,0,0,0-.01,0-.02,0,0,0,0,0,0,0,0,0,0,0-.01,0,0,0,0,0,0,0,0,0-.01,0-.02,0,0,0,0,0,0,0,0,0-.01,0-.02,0,0,0,0,0,0,0-.01,0-.03,0-.04.01,0,0,0,0,0,0-.18.06-.35.11-.53.18l2.53,7.36c.44-.15.89-.29,1.34-.41l-2.01-7.52h0Zm-6.77,2.81c-.44.26-.88.53-1.31.81h0s-.02.02-.03.02c0,0,0,0,0,0,0,0,0,0,0,0,0,0,0,0,0,0,0,0,0,0,0,0,0,0,0,0-.01,0,0,0,0,0,0,0,0,0,0,0-.01,0,0,0,0,0,0,0-.08.05-.16.11-.24.16l4.36,6.44c.39-.26.79-.51,1.19-.75l-3.9-6.73h0Zm-5.81,4.47h0s-.01.01-.02.02c0,0,0,0,0,0,0,0,0,0-.01.01,0,0,0,0,0,0,0,0-.01.01-.02.02,0,0,0,0,0,0,0,0,0,0,0,0,0,0,0,0,0,0,0,0,0,0,0,0,0,0-.01.01-.02.02,0,0,0,0,0,0,0,0,0,0-.01.01,0,0,0,0,0,0,0,0-.01.01-.02.02,0,0,0,0,0,0,0,0,0,0-.01.01,0,0,0,0,0,0,0,0-.01.02-.02.02,0,0,0,0,0,0,0,0,0,0-.01.01,0,0,0,0,0,0-.01.01-.03.03-.04.04,0,0,0,0,0,0,0,0,0,0-.01.01,0,0,0,0,0,0,0,0-.01.01-.02.02,0,0,0,0,0,0,0,0,0,0-.01.01,0,0,0,0,0,0,0,0-.01.01-.02.02,0,0,0,0,0,0,0,0,0,0-.01.01h0s-.01.02-.02.03c0,0,0,0,0,0,0,0,0,0-.01.01,0,0,0,0,0,0,0,0,0,0-.01.01,0,0-.01.01-.02.02,0,0,0,0,0,0h0s0,.02,0,.02c0,0,0,0-.01.01,0,0,0,0-.01.01,0,0,0,0-.01.01,0,0,0,0,0,0,0,0,0,0-.01.01,0,0,0,0,0,0,0,0,0,.01-.01.02,0,0,0,0,0,0h-.01s0,.02,0,.02c0,0-.01.01-.02.02,0,0,0,0,0,0,0,0,0,0-.01.01,0,0,0,0,0,0,0,0-.01.01-.02.02,0,0,0,0,0,0,0,0-.01.01-.02.02,0,0,0,0,0,0-.01.01-.03.03-.04.04,0,0,0,0,0,0-.01.01-.03.03-.04.04,0,0,0,0,0,0-.2.22-.4.43-.59.66l5.87,5.1c.31-.35.63-.7.96-1.03l-5.51-5.49h0Zm-4.46,5.82c-.32.56-.63,1.13-.91,1.72l6.99,3.41c.2-.42.43-.84.66-1.24l-6.74-3.88h0Zm-2.79,6.78c-.02.07-.04.15-.06.22,0,0,0,0,0,0,0,0,0,.01,0,.02,0,0,0,0,0,0,0,0,0,0,0,0,0,0,0,0,0,0,0,0,0,0,0,0,0,0,0,.01,0,.02,0,0,0,0,0,0,0,0,0,0,0,.01,0,0,0,0,0,0,0,.01,0,.03,0,.04,0,0,0,0,0,0-.13.51-.24,1.02-.34,1.54l7.64,1.46c.09-.46.19-.92.31-1.37l-7.52-1.99h0Zm6.85,7.25L0,28.11H0c0,.41.01.81.03,1.22,0,0,0,0,0,0,0,.03,0,.06,0,.09H.03c.01.21.02.42.04.63l7.76-.55c-.03-.47-.05-.94-.05-1.41h0Zm.7,5.25l-7.51,2.03c.17.63.36,1.25.57,1.86l7.35-2.55c-.15-.44-.29-.89-.41-1.34h0Zm2.04,4.88l-6.72,3.92c.17.3.35.59.53.88,0,0,0,0,0,0,0,.01.01.02.02.03,0,0,0,0,0,0,0,0,0,0,.01.02,0,0,0,0,0,0,0,0,0,.01.01.02,0,0,0,0,0,0,0,0,0,0,0,.01,0,0,0,0,0,0,0,0,0,0,0,.01,0,0,0,0,0,0,0,0,0,0,0,.01,0,0,0,0,0,0,0,0,0,0,0,0,0,0,0,0,0,0,0,0,0,0,0,.01,0,0,0,0,0,0,0,0,0,0,0,0,0,0,0,0,0,0,0,0,0,0,0,0,0,0,0,.01.01.02,0,0,0,0,0,0,0,0,0,0,0,.01,0,0,0,0,0,0,.12.18.24.36.36.54l6.43-4.38c-.26-.39-.51-.79-.75-1.19h0Zm3.25,4.19l-5.48,5.52s0,0,0,0c0,0,0,0,0,0,0,0,0,0,.01.01,0,0,.01.01.02.02,0,0,0,0,0,0,0,0,.01.01.02.02,0,0,0,0,0,0,0,0,.01.01.02.02,0,0,0,0,0,0,0,0,.01.01.02.02,0,0,0,0,0,0,.43.42.87.82,1.32,1.21l5.09-5.89c-.35-.31-.7-.63-1.03-.96h0Zm4.22,3.21l-3.87,6.75c.42.24.85.47,1.28.69,0,0,0,0,0,0,0,0,.01,0,.02,0,0,0,0,0,0,0,0,0,.01,0,.02,0,0,0,0,0,0,0,0,0,0,0,0,0,0,0,0,0,0,0,0,0,0,0,0,0,0,0,.01,0,.02,0,0,0,0,0,0,0,.12.06.24.12.35.17l3.39-7c-.42-.2-.84-.42-1.24-.65h0Zm4.89,2l-1.97,7.53c.62.16,1.26.31,1.9.43l1.44-7.65c-.46-.09-.92-.19-1.37-.31h0Zm6.67.6c-.47.03-.94.05-1.41.06l.04,7.78c.31,0,.61,0,.91-.02h0s.02,0,.03,0c0,0,0,0,0,0,0,0,0,0,.01,0,0,0,0,0,0,0,0,0,.02,0,.02,0,0,0,0,0,0,0,0,0,0,0,.01,0,0,0,0,0,0,0,0,0,.01,0,.02,0,0,0,0,0,0,0,0,0,0,0,.01,0,0,0,0,0,0,0,0,0,.01,0,.02,0,0,0,0,0,.01,0,0,0,0,0,0,0,0,0,0,0,.01,0,0,0,0,0,0,0,0,0,.01,0,.02,0,0,0,0,0,0,0,0,0,0,0,.01,0,0,0,0,0,0,0,0,0,.01,0,.02,0,0,0,0,0,0,0,0,0,0,0,.01,0,0,0,0,0,0,0,0,0,.01,0,.02,0,0,0,0,0,0,0,0,0,.01,0,.02,0,0,0,0,0,0,0,0,0,.01,0,.02,0,0,0,0,0,0,0,0,0,.01,0,.02,0,0,0,0,0,0,0,0,0,.01,0,.02,0h0s.01,0,.02,0c0,0,0,0,0,0,.01,0,.03,0,.04,0,0,0,0,0,0,0,.19-.01.38-.02.56-.04l-.57-7.76h0Zm5.18-1.08c-.44.15-.89.29-1.34.42l2.05,7.5c.07-.02.14-.04.2-.06,0,0,0,0,0,0,0,0,0,0,.01,0,0,0,0,0,0,0,0,0,.01,0,.02,0,0,0,0,0,0,0,0,0,0,0,0,0,0,0,0,0,.01,0,0,0,0,0,0,0,0,0,.01,0,.02,0h0s.01,0,.02,0c0,0,0,0,0,0,.37-.11.74-.22,1.11-.34,0,0,0,0,0,0,0,0,.01,0,.02,0,0,0,0,0,0,0,0,0,.01,0,.02,0,0,0,0,0,0,0,0,0,0,0,.01,0,0,0,0,0,0,0,0,0,0,0,.01,0,0,0,0,0,.01,0,0,0,0,0,0,0,0,0,0,0,.01,0,0,0,0,0,0,0,.1-.04.21-.07.31-.11l-2.57-7.34h0Zm4.72-2.39c-.39.26-.78.52-1.19.75l3.94,6.71c.24-.14.48-.29.72-.44,0,0,0,0,0,0,.01,0,.02-.01.03-.02,0,0,0,0,0,0,0,0,.01,0,.02-.01,0,0,0,0,0,0,0,0,.01,0,.02-.01,0,0,0,0,0,0,0,0,.01,0,.01,0,0,0,0,0,0,0,0,0,.01,0,.02-.01,0,0,0,0,0,0,0,0,.01,0,.02-.01,0,0,0,0,0,0,0,0,0,0,.01,0,0,0,0,0,0,0,0,0,0,0,.01,0,0,0,0,0,0,0,0,0,0,0,0,0,0,0,0,0,0,0,0,0,0,0,0,0,0,0,0,0,.01,0,0,0,0,0,.01,0,0,0,0,0,0,0,0,0,0,0,0,0,0,0,0,0,0,0,0,0,0,0,0,0,0,0,.01,0,.02-.01,0,0,0,0,0,0,0,0,0,0,.01,0,0,0,0,0,0,0,.01,0,.02-.01.03-.02,0,0,0,0,0,0,0,0,0,0,.01,0,0,0,0,0,0,0,.01,0,.02-.02.04-.02,0,0,0,0,0,0,.18-.12.35-.23.53-.35h0s0,0,.01,0h0s0,0,.01,0l-4.39-6.42h0Zm3.95-3.54c-.3.35-.63.7-.95,1.04l5.54,5.46s0,0,0,0c0,0,.01-.01.02-.02,0,0,0,0,0,0,.01-.01.03-.03.04-.04,0,0,0,0,0,0,.01-.01.03-.03.04-.04,0,0,0,0,0,0,0,0,.01-.01.02-.02h0s.01-.01.02-.02h0s.01-.01.02-.02c0,0,0,0,0,0,.01-.01.03-.03.04-.04,0,0,0,0,0,0,.01-.01.03-.03.04-.04h0c.36-.38.72-.77,1.06-1.17l-5.9-5.07h0Zm2.9-4.44c-.2.42-.42.84-.65,1.24l6.76,3.85c.05-.09.1-.17.14-.26,0,0,0,0,0,0,0,0,0-.01,0-.02,0,0,0,0,0,0,0,0,0-.01,0-.02,0,0,0,0,0,0,0,0,0,0,0-.01,0,0,0,0,0,0,0,0,0,0,0-.01,0,0,0,0,0,0,0,0,0,0,0-.01,0,0,0,0,0,0,0,0,0,0,0,0,0,0,0,0,0,0,0,0,0,0,0,0,0,0,0,0,0-.01,0,0,0,0,0,0,0,0,0,0,0-.01,0,0,0,0,0,0,0-.01.01-.02.02-.04,0,0,0,0,0,0,.11-.2.22-.41.33-.62,0,0,0,0,0,0,0-.01.01-.03.02-.04h0s.02-.04.03-.05c0,0,0,0,0,0,0-.01.01-.03.02-.04,0,0,0,0,0,0h0s0-.01,0-.01c0-.01.01-.03.02-.04h0s.01-.03.02-.04c0,0,0,0,0,0,0,0,0,0,0-.01h0s.01-.03.02-.04c0,0,0,0,0,0,0-.01.01-.03.02-.04h0s0-.01,0-.01h0s.01-.03.02-.04h0s.01-.03.02-.04h0s0,0,0-.01h0c.04-.07.07-.15.11-.22l-7.01-3.37h0Zm1.64-5.02c-.08.46-.19.92-.3,1.37l7.53,1.95c.16-.63.3-1.26.42-1.9l-7.65-1.42h0Zm8.04-5.9l-7.76.59c.04.47.06.94.06,1.41l7.78-.06c0-.29,0-.58-.02-.88h0s0-.03,0-.04c0,0,0,0,0,0,0-.01,0-.03,0-.04h0s0-.03,0-.04c0,0,0,0,0,0,0,0,0-.01,0-.02,0,0,0,0,0,0,0,0,0-.01,0-.02,0,0,0,0,0,0,0,0,0-.01,0-.02,0,0,0,0,0,0,0-.01,0-.03,0-.04,0,0,0,0,0,0,0-.01,0-.03,0-.04,0,0,0,0,0,0,0-.01,0-.03,0-.04,0,0,0,0,0,0,0-.01,0-.03,0-.04,0,0,0,0,0,0-.01-.23-.03-.46-.04-.69h0Zm-1.51-7.17l-7.34,2.59c.15.44.3.89.42,1.34l7.5-2.07s0-.02,0-.03h0s0-.01,0-.02h0s0-.03-.01-.04c0,0,0,0,0,0,0-.01,0-.03-.01-.04,0,0,0,0,0,0,0-.02-.01-.04-.02-.06h0s0-.03-.01-.04c0,0,0,0,0,0,0-.01,0-.03-.01-.04,0,0,0,0,0,0,0,0,0,0,0-.01,0,0,0,0,0,0,0-.01,0-.03-.01-.04,0,0,0,0,0,0,0-.01,0-.03-.01-.04,0,0,0,0,0,0,0,0,0,0,0-.01,0,0,0,0,0,0v-.02s0,0,0,0c0,0,0,0,0-.01,0,0,0,0,0,0,0,0,0-.01,0-.02,0,0,0,0,0,0,0,0,0,0,0-.01,0,0,0,0,0,0,0,0,0,0,0-.01,0,0,0,0,0,0,0,0,0-.01,0-.02,0,0,0,0,0,0,0,0,0,0,0-.01,0,0,0,0,0,0,0,0,0-.01,0-.02,0,0,0,0,0,0,0,0,0,0,0,0,0,0,0,0,0,0,0,0,0,0,0,0v-.02s0,0,0,0c0,0,0,0,0,0,0,0,0,0,0,0,0,0,0,0,0-.01,0,0,0,0,0-.01,0,0,0,0,0-.01h0s0-.02,0-.02c0,0,0,0,0,0,0,0,0-.01,0-.02,0,0,0,0,0,0,0,0,0,0,0-.01,0,0,0,0,0,0,0,0,0-.01,0-.02,0,0,0,0,0,0,0,0,0,0,0-.01,0,0,0,0,0,0,0,0,0,0,0-.01,0,0,0,0,0,0,0,0,0-.01,0-.02h0s0-.01,0-.02c0,0,0,0,0,0,0,0,0-.01,0-.02,0,0,0,0,0,0,0,0,0,0,0-.01,0,0,0,0,0,0,0,0,0-.01,0-.02,0,0,0,0,0,0,0,0,0-.01,0-.02,0,0,0,0,0,0,0,0,0-.01,0-.02,0,0,0,0,0,0,0,0,0-.01,0-.02,0,0,0,0,0,0,0,0,0-.01,0-.02,0,0,0,0,0,0,0,0,0-.01,0-.02,0,0,0,0,0,0,0,0,0-.01,0-.02,0,0,0,0,0,0,0-.01,0-.03-.01-.04,0,0,0,0,0,0,0,0,0-.01,0-.02,0,0,0,0,0,0,0-.01,0-.03-.01-.04h0s0-.03-.01-.04c0,0,0,0,0,0-.07-.23-.15-.46-.23-.68h0Zm-3.33-6.53l-6.41,4.41c.26.38.52.78.76,1.18l6.7-3.96c-.21-.36-.43-.71-.66-1.06,0,0,0,0,0,0,0,0,0-.01-.01-.02,0,0,0,0,0,0,0,0,0-.01-.01-.02,0,0,0,0,0,0,0,0,0,0,0-.01,0,0,0,0,0,0,0,0,0,0,0-.01,0,0,0,0,0-.01,0,0,0,0,0,0,0,0,0,0,0-.01h0s-.02-.03-.02-.04c0,0,0,0,0,0-.1-.15-.2-.29-.3-.44h0Zm-4.91-5.45l-5.05,5.92c.36.3.7.62,1.04.95l5.45-5.55c-.26-.25-.52-.5-.78-.74,0,0,0,0,0,0-.01-.01-.03-.03-.04-.04,0,0,0,0,0,0-.01-.01-.03-.03-.04-.04,0,0,0,0,0,0-.01-.01-.03-.03-.04-.04,0,0,0,0,0,0,0,0,0,0-.01-.01,0,0,0,0,0,0,0,0-.02-.02-.03-.02h0s0-.01-.01-.01c0,0,0,0,0,0-.01-.01-.03-.02-.04-.04,0,0,0,0,0,0,0,0,0,0-.01-.01h0s-.02-.02-.02-.02c0,0,0,0,0,0,0,0,0,0-.01-.01,0,0,0,0,0,0,0,0-.01-.01-.02-.02,0,0,0,0,0,0,0,0,0,0-.01,0,0,0,0,0-.01,0,0,0,0,0-.01-.01,0,0,0,0-.01-.01,0,0,0,0,0,0,0,0,0,0-.01-.01,0,0,0,0,0,0,0,0-.01-.01-.02-.02,0,0,0,0,0,0,0,0,0,0-.01-.01,0,0,0,0,0,0,0,0-.01-.01-.02-.02,0,0,0,0,0,0,0,0-.01,0-.02-.01,0,0,0,0,0,0,0,0-.01-.01-.02-.02,0,0,0,0,0,0,0,0-.01-.01-.02-.02,0,0,0,0,0,0,0,0-.01-.01-.02-.02,0,0,0,0,0,0,0,0-.01-.01-.02-.02,0,0,0,0,0,0,0,0-.01-.01-.02-.02,0,0,0,0,0,0,0,0-.01-.01-.02-.02h0Zm-6.15-3.99l-3.35,7.02c.42.2.84.42,1.24.65l3.83-6.77s0,0,0,0c0,0,0,0,0,0,0,0,0,0-.01,0,0,0,0,0,0,0,0,0-.01,0-.02,0,0,0,0,0,0,0,0,0,0,0-.01,0,0,0,0,0,0,0,0,0-.01,0-.01,0,0,0,0,0,0,0,0,0-.01,0-.02,0,0,0,0,0,0,0,0,0,0,0-.01,0,0,0,0,0,0,0,0,0-.01,0-.02,0,0,0,0,0,0,0,0,0,0,0-.01,0,0,0,0,0,0,0-.01,0-.02-.01-.03-.02,0,0,0,0,0,0,0,0-.01,0-.02,0,0,0,0,0,0,0-.01,0-.02-.01-.04-.02,0,0,0,0,0,0-.48-.27-.98-.52-1.48-.76h0Zm-6.98-2.26l-1.4,7.65c.46.08.92.18,1.37.3l1.93-7.54c-.11-.03-.22-.06-.34-.08,0,0,0,0,0,0,0,0,0,0-.01,0,0,0,0,0,0,0,0,0,0,0-.01,0,0,0,0,0-.01,0,0,0,0,0,0,0,0,0-.01,0-.02,0,0,0,0,0,0,0,0,0-.01,0-.02,0,0,0,0,0,0,0-.49-.12-.97-.22-1.47-.31h0Z"/><path class="cls-2" d="m48.45,27.53c0,10.55-7.57,20.89-20.47,20.89-11.35,0-20.37-9.07-20.37-20.57S16.99,7.65,28.14,7.65c8.65,0,17,5.99,19.17,13.89h-10.99c-1.81-3.23-4.77-5.09-8.45-5.09-6.17,0-10.47,5.09-10.47,11.4s4.04,11.77,10.52,11.77c4.56,0,7.98-2.28,9.17-6.31h-11.45v-8.01h22.8v2.23Z"/></g></svg>