<svg width="15" height="16" viewBox="0 0 15 16" fill="none" xmlns="http://www.w3.org/2000/svg">
<path d="M9.00757 8.89258L11.4601 10.3101" stroke="#69737C" stroke-width="0.5" stroke-miterlimit="10"/>
<path d="M11.4601 5.73486L9.00757 7.15236" stroke="#69737C" stroke-width="0.5" stroke-miterlimit="10"/>
<path d="M7.5 4.30273V6.27523" stroke="#69737C" stroke-width="0.5" stroke-miterlimit="10"/>
<path d="M7.5 9.77002V11.63" stroke="#69737C" stroke-width="0.5" stroke-miterlimit="10"/>
<path d="M11.4676 5.73494V4.48994L9.01507 3.07244V3.49994L7.50007 4.36994L5.98507 3.49994V3.06494L3.53257 4.48244V5.73494L2.44507 6.36494V9.69494L3.53257 10.3174V11.5549L5.98507 12.9724V12.4999L7.50007 11.6299L9.01507 12.4999V12.9574L11.4676 11.5474V10.3174L12.5326 9.70244V6.34994L11.4676 5.73494Z" stroke="#69737C" stroke-width="0.5" stroke-miterlimit="10"/>
<path d="M5.98504 8.89258L3.54004 10.3101" stroke="#69737C" stroke-width="0.5" stroke-miterlimit="10"/>
<path d="M3.39746 5.65234L5.98496 7.14484" stroke="#69737C" stroke-width="0.5" stroke-miterlimit="10"/>
<path d="M9.01511 12.4999L7.50011 11.6299L5.98511 12.4999V14.2549L7.50011 15.1249L9.01511 14.2549V12.4999Z" stroke="#69737C" stroke-width="0.5" stroke-miterlimit="10"/>
<path d="M9.01511 12.5L7.50011 13.3775L5.98511 12.5" stroke="#69737C" stroke-width="0.5" stroke-miterlimit="10"/>
<path d="M7.5 15.1249V13.3774" stroke="#69737C" stroke-width="0.5" stroke-miterlimit="10"/>
<path d="M3.53251 3.98768L2.02501 3.11768L0.51001 3.98768V5.73518L2.02501 6.61268L3.53251 5.73518V3.98768Z" stroke="#69737C" stroke-width="0.5" stroke-miterlimit="10"/>
<path d="M3.53251 3.9873L2.02501 4.8648L0.51001 3.9873" stroke="#69737C" stroke-width="0.5" stroke-miterlimit="10"/>
<path d="M2.0249 6.61273V4.86523" stroke="#69737C" stroke-width="0.5" stroke-miterlimit="10"/>
<path d="M11.4675 3.98768L12.975 3.11768L14.49 3.98768V5.73518L12.975 6.61268L11.4675 5.73518V3.98768Z" stroke="#69737C" stroke-width="0.5" stroke-miterlimit="10"/>
<path d="M11.4675 3.9873L12.975 4.8648L14.49 3.9873" stroke="#69737C" stroke-width="0.5" stroke-miterlimit="10"/>
<path d="M12.9751 6.61273V4.86523" stroke="#69737C" stroke-width="0.5" stroke-miterlimit="10"/>
<path d="M3.53251 10.3173L2.02501 9.44727L0.51001 10.3173V12.0648L2.02501 12.9423L3.53251 12.0648V10.3173Z" stroke="#69737C" stroke-width="0.5" stroke-miterlimit="10"/>
<path d="M3.53251 10.3174L2.02501 11.1949L0.51001 10.3174" stroke="#69737C" stroke-width="0.5" stroke-miterlimit="10"/>
<path d="M2.0249 12.9423V11.1948" stroke="#69737C" stroke-width="0.5" stroke-miterlimit="10"/>
<path d="M11.4675 10.3173L12.975 9.44727L14.49 10.3173V12.0648L12.975 12.9423L11.4675 12.0648V10.3173Z" stroke="#69737C" stroke-width="0.5" stroke-miterlimit="10"/>
<path d="M11.4675 10.3174L12.975 11.1949L14.49 10.3174" stroke="#69737C" stroke-width="0.5" stroke-miterlimit="10"/>
<path d="M12.9751 12.9423V11.1948" stroke="#69737C" stroke-width="0.5" stroke-miterlimit="10"/>
<path d="M9.01511 1.7525L7.50011 0.875L5.98511 1.7525V3.5L7.50011 4.37L9.01511 3.5V1.7525Z" stroke="#69737C" stroke-width="0.5" stroke-miterlimit="10"/>
<path d="M9.01511 1.75244L7.50011 2.62244L5.98511 1.75244" stroke="#69737C" stroke-width="0.5" stroke-miterlimit="10"/>
<path d="M7.5 4.37006V2.62256" stroke="#69737C" stroke-width="0.5" stroke-miterlimit="10"/>
<path d="M9.01511 7.1524L7.50011 6.2749L5.98511 7.1524V8.8999L7.50011 9.7699L9.01511 8.8999V7.1524Z" stroke="#69737C" stroke-width="0.5" stroke-miterlimit="10"/>
<path d="M9.01511 7.15234L7.50011 8.02234L5.98511 7.15234" stroke="#69737C" stroke-width="0.5" stroke-miterlimit="10"/>
<path d="M7.5 9.76996V8.02246" stroke="#69737C" stroke-width="0.5" stroke-miterlimit="10"/>
</svg>
