<svg width="9" height="9" viewBox="0 0 9 9" fill="none" xmlns="http://www.w3.org/2000/svg">
<path d="M1.32458 2.44238C1.26012 2.44238 1.1983 2.46818 1.15273 2.51409C1.10715 2.56001 1.08154 2.62228 1.08154 2.68722V5.64755C1.08168 6.02361 1.2292 6.38441 1.49201 6.65148C1.75483 6.91855 2.11169 7.07029 2.48497 7.0737H2.82738C2.739 7.06985 2.65549 7.03187 2.59418 6.96764C2.53286 6.90341 2.49845 6.81787 2.49809 6.72876V2.68722C2.49809 2.62233 2.47252 2.5601 2.42701 2.5142C2.38149 2.46829 2.31975 2.44246 2.25534 2.44238H1.32458Z" fill="url(#paint0_linear_3209_18131)"/>
<path d="M1.08154 5.64746V6.86723C1.08143 7.0817 1.12327 7.29409 1.20468 7.49227C1.28609 7.69044 1.40547 7.8705 1.556 8.02217C1.70652 8.17384 1.88524 8.29414 2.08194 8.37618C2.27865 8.45823 2.48947 8.50042 2.70236 8.50035H5.98364C6.33869 8.47148 6.66991 8.30892 6.91132 8.04506C7.15272 7.78119 7.28659 7.43539 7.28624 7.07654V6.72603C7.28555 6.81788 7.24882 6.90573 7.18407 6.97041C7.11932 7.03509 7.03181 7.07134 6.94063 7.07126L2.82825 7.07361H2.49983C2.12414 7.07377 1.76376 6.92363 1.49791 6.6562C1.23207 6.38877 1.08251 6.02594 1.08213 5.64746H1.08154Z" fill="url(#paint1_linear_3209_18131)"/>
<path d="M2.8347 0.500002H0.788131C0.668653 0.500002 0.580938 0.598934 0.574527 0.719003C0.560711 1.04073 0.506265 1.35936 0.412503 1.66722C0.376077 1.7961 0.457672 1.93143 0.590555 1.93143H6.93833C7.89183 1.94112 8.70195 2.71731 8.70195 3.69783V2.13517C8.70195 1.80663 8.60374 1.48571 8.4201 1.2142C8.23646 0.942703 7.97591 0.733212 7.67239 0.613025L7.65986 0.608328L7.65491 0.606273C7.47082 0.535711 7.27547 0.499694 7.0785 0.500002H2.8347Z" fill="url(#paint2_linear_3209_18131)"/>
<path d="M7.28355 2.27688H7.28559V6.72031V7.07083C7.28587 7.42965 7.15198 7.77541 6.91059 8.03926C6.6692 8.30312 6.33801 8.46569 5.98299 8.49463C5.9454 8.49756 5.9078 8.49932 5.86963 8.49932H7.08073C7.29363 8.49952 7.50448 8.45741 7.70122 8.37542C7.89795 8.29344 8.0767 8.17317 8.22725 8.02151C8.37779 7.86985 8.49718 7.68977 8.57856 7.49158C8.65995 7.29339 8.70174 7.08098 8.70155 6.8665V3.7089C8.70163 3.23848 8.51654 2.78723 8.18687 2.45407C7.8572 2.12091 7.40985 1.93304 6.94289 1.93164C7.03338 1.93226 7.11994 1.96891 7.18371 2.03358C7.24747 2.09826 7.28326 2.18572 7.28326 2.27688" fill="url(#paint3_linear_3209_18131)"/>
<defs>
<linearGradient id="paint0_linear_3209_18131" x1="1.95461" y1="2.44238" x2="1.95461" y2="7.0737" gradientUnits="userSpaceOnUse">
<stop offset="0.03" stop-color="#05612D"/>
<stop offset="0.3" stop-color="#017E36"/>
<stop offset="0.33" stop-color="#138838"/>
<stop offset="0.4" stop-color="#2E963C"/>
<stop offset="0.48" stop-color="#41A13F"/>
<stop offset="0.55" stop-color="#4CA740"/>
<stop offset="0.63" stop-color="#50A941"/>
<stop offset="0.73" stop-color="#57AB3C"/>
<stop offset="0.88" stop-color="#6CAF30"/>
<stop offset="0.91" stop-color="#70B02D"/>
</linearGradient>
<linearGradient id="paint1_linear_3209_18131" x1="7.28624" y1="7.0739" x2="1.08154" y2="7.0739" gradientUnits="userSpaceOnUse">
<stop offset="0.03" stop-color="#1F9CD4"/>
<stop offset="0.3" stop-color="#1470B1"/>
<stop offset="0.36" stop-color="#1A5EA2"/>
<stop offset="0.44" stop-color="#214B92"/>
<stop offset="0.53" stop-color="#254088"/>
<stop offset="0.63" stop-color="#263C85"/>
<stop offset="0.69" stop-color="#25397E"/>
<stop offset="0.79" stop-color="#223169"/>
<stop offset="0.9" stop-color="#1E2448"/>
<stop offset="0.91" stop-color="#1E2345"/>
</linearGradient>
<linearGradient id="paint2_linear_3209_18131" x1="1.20077" y1="-0.428551" x2="8.62743" y2="3.8277" gradientUnits="userSpaceOnUse">
<stop stop-color="#EDE229"/>
<stop offset="0.44" stop-color="#F3A30F"/>
<stop offset="0.57" stop-color="#E96316"/>
<stop offset="0.68" stop-color="#E1321B"/>
<stop offset="0.73" stop-color="#DE1F1D"/>
<stop offset="0.84" stop-color="#DC1820"/>
<stop offset="1" stop-color="#DB1222"/>
</linearGradient>
<linearGradient id="paint3_linear_3209_18131" x1="7.28617" y1="8.49991" x2="7.28617" y2="1.93164" gradientUnits="userSpaceOnUse">
<stop stop-color="#293170"/>
<stop offset="0.06" stop-color="#313272"/>
<stop offset="0.14" stop-color="#473577"/>
<stop offset="0.25" stop-color="#6A3A7F"/>
<stop offset="0.29" stop-color="#793C82"/>
<stop offset="0.44" stop-color="#803483"/>
<stop offset="0.66" stop-color="#852E83"/>
<stop offset="0.97" stop-color="#59132A"/>
<stop offset="1" stop-color="#551022"/>
</linearGradient>
</defs>
</svg>
