<svg width="24" height="25" viewBox="0 0 24 25" fill="none" xmlns="http://www.w3.org/2000/svg">
<rect y="0.875" width="24" height="24" rx="12" fill="#262C2E"/>
<path d="M12.2553 12.8163C12.6282 12.8163 12.9927 12.7057 13.3028 12.4985C13.6129 12.2914 13.8545 11.9969 13.9972 11.6524C14.1399 11.3079 14.1773 10.9288 14.1045 10.563C14.0318 10.1973 13.8522 9.86132 13.5885 9.59764C13.3248 9.33396 12.9889 9.15439 12.6231 9.08164C12.2574 9.00889 11.8783 9.04623 11.5338 9.18893C11.1893 9.33164 10.8948 9.5733 10.6876 9.88335C10.4805 10.1934 10.3699 10.5579 10.3699 10.9308C10.3704 11.4307 10.5692 11.91 10.9227 12.2635C11.2761 12.617 11.7554 12.8158 12.2553 12.8163ZM12.2553 9.67389C12.5039 9.67389 12.7469 9.74761 12.9536 9.88572C13.1603 10.0238 13.3214 10.2201 13.4166 10.4498C13.5117 10.6795 13.5366 10.9322 13.4881 11.1761C13.4396 11.4199 13.3199 11.6439 13.1441 11.8196C12.9683 11.9954 12.7444 12.1151 12.5005 12.1636C12.2567 12.2121 12.004 12.1873 11.7743 12.0921C11.5446 11.997 11.3483 11.8359 11.2102 11.6292C11.0721 11.4225 10.9984 11.1794 10.9984 10.9308C10.9984 10.5975 11.1308 10.2778 11.3665 10.042C11.6022 9.80632 11.9219 9.67389 12.2553 9.67389Z" fill="#F9F8F4"/>
<path d="M12.2553 13.1304C9.77278 13.1304 8.17017 14.4873 8.17017 16.587C8.17017 16.6703 8.20327 16.7503 8.2622 16.8092C8.32114 16.8681 8.40106 16.9012 8.4844 16.9012H16.0261C16.1095 16.9012 16.1894 16.8681 16.2483 16.8092C16.3073 16.7503 16.3404 16.6703 16.3404 16.587C16.3404 14.4873 14.7378 13.1304 12.2553 13.1304ZM8.81278 16.2728C8.98373 14.4266 10.6709 13.7588 12.2553 13.7588C13.8397 13.7588 15.5268 14.4266 15.6978 16.2728H8.81278Z" fill="#F9F8F4"/>
</svg>
