<svg width="32" height="33" viewBox="0 0 32 33" fill="none" xmlns="http://www.w3.org/2000/svg">
<circle cx="16" cy="16.291" r="15.5" fill="#E84C25" fill-opacity="0.8" stroke="#E84C25"/>
<path d="M19.0133 12.0586L16.9467 10.4586C16.68 10.1919 16.08 10.0586 15.68 10.0586H13.1467C12.3467 10.0586 11.48 10.6586 11.28 11.4586L9.67998 16.3253C9.34665 17.2586 9.94665 18.0586 10.9467 18.0586H13.6133C14.0133 18.0586 14.3467 18.3919 14.28 18.8586L13.9467 20.9919C13.8133 21.5919 14.2133 22.2586 14.8133 22.4586C15.3467 22.6586 16.0133 22.3919 16.28 21.9919L19.0133 17.9253" stroke="white" stroke-width="1.5" stroke-miterlimit="10"/>
<path d="M22.4134 12.0577V18.591C22.4134 19.5243 22.0134 19.8577 21.0801 19.8577H20.4134C19.4801 19.8577 19.0801 19.5243 19.0801 18.591V12.0577C19.0801 11.1243 19.4801 10.791 20.4134 10.791H21.0801C22.0134 10.791 22.4134 11.1243 22.4134 12.0577Z" stroke="white" stroke-width="1.5" stroke-linecap="round" stroke-linejoin="round"/>
</svg>
