<svg width="69" height="69" viewBox="0 0 69 69" fill="none" xmlns="http://www.w3.org/2000/svg">
<path d="M34.2853 5.71387C18.5424 5.71387 5.71387 18.5424 5.71387 34.2853C5.71387 50.0282 18.5424 62.8567 34.2853 62.8567C50.0282 62.8567 62.8567 50.0282 62.8567 34.2853C62.8567 18.5424 50.0282 5.71387 34.2853 5.71387ZM47.9424 27.7139L31.7424 43.9139C31.3424 44.3139 30.7996 44.5424 30.2282 44.5424C29.6567 44.5424 29.1139 44.3139 28.7139 43.9139L20.6282 35.8282C19.7996 34.9996 19.7996 33.6282 20.6282 32.7996C21.4567 31.971 22.8282 31.971 23.6567 32.7996L30.2282 39.371L44.9139 24.6853C45.7424 23.8567 47.1139 23.8567 47.9424 24.6853C48.771 25.5139 48.771 26.8567 47.9424 27.7139Z" fill="#50BE8F"/>
</svg>
