<svg width="32" height="17" viewBox="0 0 32 17" fill="none" xmlns="http://www.w3.org/2000/svg">
<g id="IC_Icon">
<path id="Vector" d="M24.2298 0.875C22.4456 0.875 20.4919 1.84497 18.4311 3.7582C17.4587 4.65698 16.6023 5.63585 15.9778 6.41004C15.9778 6.41004 16.9769 7.55798 18.0742 8.79491C18.672 8.04742 19.5195 7.03295 20.5097 6.11638C22.3385 4.40781 23.534 4.06076 24.2209 4.06076C26.7902 4.06076 28.8777 6.21427 28.8777 8.875C28.8777 11.509 26.7902 13.6625 24.2209 13.6892C24.096 13.6892 23.9532 13.6714 23.7748 13.6358C24.5242 13.9829 25.336 14.2321 26.0943 14.2321C30.8047 14.2321 31.7324 10.984 31.786 10.7526C31.9198 10.1564 32.0001 9.53351 32.0001 8.8928C31.9912 4.47011 28.5119 0.875 24.2298 0.875Z" fill="url(#paint0_linear_3050_5069)"/>
<path id="Vector_2" d="M7.77028 16.8751C9.5545 16.8751 11.5082 15.9052 13.569 13.9919C14.5414 13.0932 15.3978 12.1143 16.0223 11.3401C16.0223 11.3401 15.0231 10.1922 13.9258 8.95524C13.3281 9.70274 12.4806 10.7172 11.4904 11.6338C9.66155 13.3245 8.4572 13.6894 7.7792 13.6894C5.20992 13.6894 3.12239 11.5359 3.12239 8.87515C3.12239 6.24111 5.20992 4.08761 7.7792 4.06091C7.90409 4.06091 8.04683 4.07871 8.22525 4.1143C7.47588 3.76725 6.66406 3.51808 5.90577 3.51808C1.19543 3.50919 0.267633 6.75724 0.214106 6.99751C0.0802899 7.59373 0 8.21664 0 8.85735C0 13.28 3.47923 16.8751 7.77028 16.8751Z" fill="url(#paint1_linear_3050_5069)"/>
<path id="Vector_3" fill-rule="evenodd" clip-rule="evenodd" d="M11.3567 6.18757C10.8392 5.68924 8.32348 3.65142 5.91479 3.58023C1.61482 3.47344 0.356941 6.58802 0.240967 6.98846C1.07063 3.50014 4.13949 0.892798 7.7793 0.875C10.75 0.875 13.7564 3.7849 15.9778 6.41004L15.9867 6.40114C15.9867 6.40114 16.9859 7.54908 18.0832 8.78601C18.0832 8.78601 19.3321 10.2543 20.6524 11.5446C21.1699 12.043 23.6767 14.0541 26.0854 14.1253C30.5013 14.2499 31.7235 10.9573 31.786 10.7081C30.9742 14.2232 27.8964 16.8394 24.2387 16.8572C21.268 16.8572 18.2616 13.9473 16.0313 11.3222C16.0313 11.3311 16.0224 11.3311 16.0224 11.34C16.0224 11.34 15.0232 10.192 13.9259 8.95509C13.9349 8.95509 12.6859 7.47789 11.3567 6.18757Z" fill="#29ABE2"/>
</g>
<defs>
<linearGradient id="paint0_linear_3050_5069" x1="20.0534" y1="2.14276" x2="31.0237" y2="13.231" gradientUnits="userSpaceOnUse">
<stop offset="0.21" stop-color="#F15A24"/>
<stop offset="0.6841" stop-color="#FBB03B"/>
</linearGradient>
<linearGradient id="paint1_linear_3050_5069" x1="11.9495" y1="15.6092" x2="0.979242" y2="4.52095" gradientUnits="userSpaceOnUse">
<stop offset="0.21" stop-color="#ED1E79"/>
<stop offset="0.8929" stop-color="#522785"/>
</linearGradient>
</defs>
</svg>
